<?xml version="1.0" standalone="no"?>
<!DOCTYPE svg PUBLIC "-//W3C//DTD SVG 20010904//EN"
 "http://www.w3.org/TR/2001/REC-SVG-20010904/DTD/svg10.dtd">
<svg version="1.0" xmlns="http://www.w3.org/2000/svg"
 width="512.000000pt" height="512.000000pt" viewBox="0 0 512.000000 512.000000"
 preserveAspectRatio="xMidYMid meet">

<g transform="translate(0.000000,512.000000) scale(0.100000,-0.100000)"
fill="#A87FFB" stroke="none">
<path d="M1038 5110 c-149 -45 -208 -213 -195 -555 9 -225 43 -325 136 -390
l43 -30 900 -3 c495 -1 898 -6 896 -11 -2 -4 -144 -231 -315 -503 -238 -377
-313 -503 -313 -526 0 -21 10 -43 29 -64 38 -43 98 -46 135 -8 20 21 699 1090
734 1157 30 55 4 121 -55 144 -14 5 -411 9 -987 9 l-963 0 -12 27 c-44 97 -36
492 11 551 14 16 2771 18 2833 1 22 -6 52 -22 66 -36 45 -42 51 -89 47 -329
-4 -195 -7 -226 -27 -284 -43 -121 50 30 -1105 -1805 -522 -830 -951 -1522
-954 -1538 -2 -15 1 -41 8 -58 26 -62 -31 -59 1108 -59 l1039 0 11 -25 c36
-78 42 -441 10 -530 l-15 -40 -1494 0 c-1442 0 -1495 1 -1532 19 -24 12 -48
36 -65 65 l-27 46 0 210 c0 313 -40 229 572 1199 210 333 353 569 353 583 0
85 -104 136 -163 81 -14 -13 -184 -277 -380 -588 -437 -696 -461 -736 -508
-835 -62 -134 -71 -177 -76 -405 -5 -219 4 -297 46 -378 49 -95 148 -168 259
-191 37 -8 493 -11 1551 -11 l1497 0 51 25 c105 53 142 152 150 410 8 261 -19
411 -90 491 -64 74 16 68 -1059 74 l-967 5 721 1145 c1294 2058 1213 1925
1259 2080 19 65 22 106 26 310 6 253 -1 308 -43 392 -46 91 -132 153 -242 177
-63 13 -2860 14 -2904 1z"/>
<path d="M1985 2787 c-17 -14 -28 -36 -32 -63 -5 -36 -1 -46 25 -75 25 -28 37
-34 72 -34 35 0 47 6 71 33 16 18 29 44 29 58 0 33 -25 81 -49 94 -34 17 -88
12 -116 -13z"/>
</g>
</svg>
